<svg width="647" height="128" viewBox="0 0 647 128" fill="none" xmlns="http://www.w3.org/2000/svg">
<g clip-path="url(#clip0)">
<path d="M216.335 56.1801C217.455 56.1801 218.015 56.1801 218.443 56.398C218.819 56.5898 219.125 56.8958 219.317 57.2721C219.535 57.6999 219.535 58.26 219.535 59.3801V67.3203C219.535 68.4404 219.535 69.0004 219.317 69.4282C219.125 69.8046 218.819 70.1105 218.443 70.3023C218.015 70.5203 217.455 70.5203 216.335 70.5203H188.466C187.346 70.5203 186.786 70.5203 186.358 70.7382C185.981 70.93 185.675 71.2359 185.484 71.6123C185.266 72.0401 185.266 72.6001 185.266 73.7203V104.535C185.266 105.656 185.266 106.216 185.048 106.643C184.856 107.02 184.55 107.326 184.174 107.517C183.746 107.735 183.186 107.735 182.066 107.735H171.353C170.233 107.735 169.673 107.735 169.245 107.517C168.869 107.326 168.563 107.02 168.371 106.643C168.153 106.216 168.153 105.656 168.153 104.535V22.2082C168.153 21.0881 168.153 20.528 168.371 20.1002C168.563 19.7239 168.869 19.4179 169.245 19.2262C169.673 19.0082 170.233 19.0082 171.353 19.0082H222.27C223.39 19.0082 223.95 19.0082 224.378 19.2262C224.755 19.4179 225.061 19.7239 225.252 20.1002C225.47 20.528 225.47 21.0881 225.47 22.2082V30.1917C225.47 31.3118 225.47 31.8719 225.252 32.2997C225.061 32.676 224.755 32.982 224.378 33.1737C223.95 33.3917 223.39 33.3917 222.27 33.3917H188.466C187.346 33.3917 186.786 33.3917 186.358 33.6097C185.981 33.8014 185.675 34.1074 185.484 34.4837C185.266 34.9115 185.266 35.4716 185.266 36.5917V52.9801C185.266 54.1002 185.266 54.6602 185.484 55.088C185.675 55.4644 185.981 55.7703 186.358 55.9621C186.786 56.1801 187.346 56.1801 188.466 56.1801H216.335Z" fill="black"/>
<path d="M249.392 19.0082C250.512 19.0082 251.072 19.0082 251.5 19.2262C251.876 19.4179 252.182 19.7239 252.374 20.1002C252.592 20.528 252.592 21.0881 252.592 22.2082V104.535C252.592 105.656 252.592 106.216 252.374 106.643C252.182 107.02 251.876 107.326 251.5 107.517C251.072 107.735 250.512 107.735 249.392 107.735H238.982C237.862 107.735 237.302 107.735 236.874 107.517C236.498 107.326 236.192 107.02 236 106.643C235.782 106.216 235.782 105.656 235.782 104.535V22.2082C235.782 21.0881 235.782 20.528 236 20.1002C236.192 19.7239 236.498 19.4179 236.874 19.2262C237.302 19.0082 237.862 19.0082 238.982 19.0082H249.392Z" fill="black"/>
<path d="M292.007 108.992C285.652 108.992 280.15 107.533 275.5 104.616C270.879 101.699 267.312 97.6554 264.799 92.4855C262.286 87.2866 261.03 81.3223 261.03 74.5927C261.03 67.8053 262.286 61.841 264.799 56.6999C267.312 51.5588 270.879 47.5442 275.5 44.6559C280.15 41.7676 285.652 40.3235 292.007 40.3235C298.361 40.3235 303.849 41.7676 308.47 44.6559C313.12 47.5442 316.701 51.5588 319.214 56.6999C321.727 61.841 322.983 67.8053 322.983 74.5927C322.983 81.3223 321.727 87.2866 319.214 92.4855C316.701 97.6554 313.12 101.699 308.47 104.616C303.849 107.533 298.361 108.992 292.007 108.992ZM292.007 95.2149C297.263 95.2149 301.047 93.2508 303.358 89.3228C305.697 85.3948 306.867 80.4847 306.867 74.5927C306.867 68.6718 305.697 63.7617 303.358 59.8626C301.047 55.9346 297.263 53.9705 292.007 53.9705C286.75 53.9705 282.952 55.9346 280.612 59.8626C278.302 63.7617 277.147 68.6718 277.147 74.5927C277.147 80.4847 278.302 85.3948 280.612 89.3228C282.952 93.2508 286.75 95.2149 292.007 95.2149Z" fill="black"/>
<path d="M410.003 41.19C411.418 41.19 412.125 41.19 412.605 41.4837C413.026 41.741 413.337 42.1448 413.478 42.6174C413.639 43.1568 413.459 43.8405 413.097 45.2077L397.199 105.353C396.974 106.206 396.861 106.632 396.619 106.949C396.406 107.229 396.122 107.447 395.797 107.582C395.429 107.735 394.988 107.735 394.106 107.735H384.81C383.947 107.735 383.516 107.735 383.153 107.588C382.832 107.457 382.551 107.246 382.337 106.974C382.094 106.666 381.975 106.252 381.736 105.422L370.589 66.7733C370.504 66.4779 370.234 66.2745 369.926 66.2745V66.2745C369.618 66.2745 369.347 66.4789 369.263 66.7752L358.241 105.413C358.003 106.246 357.884 106.662 357.642 106.971C357.428 107.243 357.146 107.456 356.825 107.587C356.462 107.735 356.029 107.735 355.163 107.735H345.834C344.951 107.735 344.51 107.735 344.141 107.582C343.816 107.447 343.532 107.229 343.319 106.949C343.077 106.631 342.964 106.205 342.739 105.351L326.881 45.2059C326.52 43.8391 326.34 43.1557 326.501 42.6166C326.643 42.1442 326.954 41.7406 327.375 41.4835C327.855 41.19 328.561 41.19 329.975 41.19H339.64C340.567 41.19 341.031 41.19 341.412 41.3554C341.748 41.5013 342.038 41.7366 342.249 42.0358C342.489 42.375 342.583 42.8289 342.773 43.7366L351.21 84.1867C351.26 84.4277 351.473 84.6005 351.719 84.6005V84.6005C351.955 84.6005 352.161 84.4416 352.222 84.2134L362.97 43.5718C363.196 42.7193 363.308 42.2931 363.551 41.9761C363.764 41.6964 364.048 41.478 364.373 41.343C364.741 41.19 365.182 41.19 366.064 41.19H373.832C374.714 41.19 375.154 41.19 375.522 41.3428C375.847 41.4776 376.131 41.6958 376.344 41.9752C376.586 42.2918 376.699 42.7177 376.925 43.5693L387.629 83.9095C387.689 84.1381 387.896 84.2972 388.133 84.2972V84.2972C388.379 84.2972 388.591 84.1252 388.643 83.8845L397.2 43.7232C397.392 42.8199 397.488 42.3683 397.728 42.0309C397.94 41.7333 398.229 41.4993 398.564 41.3544C398.944 41.19 399.406 41.19 400.329 41.19H410.003Z" fill="black"/>
<path d="M472.241 55.895C472.557 56.9106 472.714 57.4184 472.59 57.948C472.489 58.3801 472.184 58.8425 471.826 59.1049C471.387 59.4265 470.797 59.4867 469.616 59.6072L460.665 60.52C459.711 60.6173 459.235 60.6659 458.899 60.5837C458.514 60.4893 458.397 60.4304 458.093 60.1759C457.828 59.9545 457.464 59.3375 456.736 58.1037C456.11 57.0411 455.24 56.0822 454.126 55.2269C452.162 53.6673 449.563 52.8874 446.328 52.8874C443.497 52.8874 440.999 53.5373 438.833 54.837C436.696 56.1079 435.627 57.8264 435.627 59.9926C435.627 61.8699 436.436 63.3718 438.053 64.4982C439.671 65.5958 441.721 66.4189 444.205 66.9677L456.552 69.6105C461.665 70.7369 465.91 72.6865 469.29 75.4592C472.698 78.203 474.402 82.2466 474.402 87.5899C474.402 92.1822 473.102 96.0669 470.503 99.244C467.932 102.421 464.437 104.847 460.018 106.522C455.599 108.169 450.631 108.992 445.115 108.992C436.768 108.992 430.24 107.216 425.533 103.663C421.731 100.753 419.045 96.9576 417.474 92.2754C417.131 91.2519 416.959 90.7402 417.074 90.2047C417.168 89.7672 417.467 89.2976 417.824 89.0278C418.261 88.6976 418.857 88.63 420.05 88.495L429.897 87.3803C430.841 87.2734 431.313 87.22 431.673 87.3138C432.042 87.4102 432.244 87.5205 432.525 87.7797C432.798 88.0321 433.064 88.5722 433.596 89.6523C434.488 91.4658 435.758 92.9445 437.403 94.0884C439.772 95.7059 442.588 96.5146 445.851 96.5146C449.086 96.5146 451.772 95.8358 453.91 94.4783C456.076 93.092 457.159 91.4312 457.159 89.4961C457.159 87.2144 456.336 85.6258 454.689 84.7305C453.072 83.8351 451.195 83.1419 449.057 82.6509L437.36 80.0082C432.017 78.7373 427.612 76.6 424.146 73.5962C420.68 70.5636 418.947 66.39 418.947 61.0756C418.947 54.6348 421.532 49.5659 426.702 45.869C431.872 42.172 438.645 40.3235 447.021 40.3235C454.819 40.3235 460.827 41.9698 465.044 45.2624C468.465 47.9157 470.864 51.4599 472.241 55.895Z" fill="black"/>
<path d="M496.964 70.8235V104.535C496.964 105.656 496.964 106.216 496.746 106.643C496.554 107.02 496.248 107.326 495.872 107.517C495.444 107.735 494.884 107.735 493.764 107.735H483.354C482.234 107.735 481.674 107.735 481.246 107.517C480.87 107.326 480.564 107.02 480.372 106.643C480.154 106.216 480.154 105.656 480.154 104.535V22.2082C480.154 21.0881 480.154 20.528 480.372 20.1002C480.564 19.7239 480.87 19.4179 481.246 19.2262C481.674 19.0082 482.234 19.0082 483.354 19.0082H493.287C494.407 19.0082 494.967 19.0082 495.395 19.2262C495.771 19.4179 496.077 19.7239 496.269 20.1002C496.487 20.528 496.487 21.0881 496.487 22.2082V48.5713C496.487 48.8255 496.693 49.0316 496.947 49.0316V49.0316C497.094 49.0316 497.231 48.9618 497.319 48.8449C499.15 46.4156 501.545 44.3983 504.502 42.793C507.535 41.1467 511.102 40.3235 515.203 40.3235C521.268 40.3235 526.222 42.4319 530.063 46.6488C533.933 50.8657 535.868 57.292 535.868 65.9279V104.535C535.868 105.656 535.868 106.216 535.65 106.643C535.459 107.02 535.153 107.326 534.776 107.517C534.349 107.735 533.789 107.735 532.668 107.735H522.215C521.095 107.735 520.535 107.735 520.107 107.517C519.731 107.326 519.425 107.02 519.233 106.643C519.015 106.216 519.015 105.656 519.015 104.535V65.798C519.015 62.2454 518.221 59.4293 516.633 57.3498C515.044 55.2414 512.604 54.1872 509.311 54.1872C505.47 54.1872 502.451 55.689 500.256 58.6928C498.061 61.6677 496.964 65.7113 496.964 70.8235Z" fill="black"/>
<path d="M574.622 108.992C568.268 108.992 562.766 107.533 558.116 104.616C553.495 101.699 549.928 97.6554 547.415 92.4855C544.902 87.2866 543.646 81.3223 543.646 74.5927C543.646 67.8053 544.902 61.841 547.415 56.6999C549.928 51.5588 553.495 47.5442 558.116 44.6559C562.766 41.7676 568.268 40.3235 574.622 40.3235C580.977 40.3235 586.464 41.7676 591.086 44.6559C595.736 47.5442 599.317 51.5588 601.83 56.6999C604.343 61.841 605.599 67.8053 605.599 74.5927C605.599 81.3223 604.343 87.2866 601.83 92.4855C599.317 97.6554 595.736 101.699 591.086 104.616C586.464 107.533 580.977 108.992 574.622 108.992ZM574.622 95.2149C579.879 95.2149 583.663 93.2508 585.973 89.3228C588.313 85.3948 589.483 80.4847 589.483 74.5927C589.483 68.6718 588.313 63.7617 585.973 59.8626C583.663 55.9346 579.879 53.9705 574.622 53.9705C569.366 53.9705 565.568 55.9346 563.228 59.8626C560.918 63.7617 559.762 68.6718 559.762 74.5927C559.762 80.4847 560.918 85.3948 563.228 89.3228C565.568 93.2508 569.366 95.2149 574.622 95.2149Z" fill="black"/>
<path d="M641.749 41.19C642.869 41.19 643.429 41.19 643.857 41.408C644.233 41.5997 644.539 41.9057 644.731 42.282C644.949 42.7098 644.949 43.2699 644.949 44.39V50.4673C644.949 51.5874 644.949 52.1474 644.731 52.5753C644.539 52.9516 644.233 53.2575 643.857 53.4493C643.429 53.6673 642.869 53.6673 641.749 53.6673H636.538C635.418 53.6673 634.858 53.6673 634.43 53.8853C634.054 54.077 633.748 54.383 633.556 54.7593C633.338 55.1871 633.338 55.7472 633.338 56.8673V87.3732C633.338 90.4637 633.988 92.4277 635.288 93.2653C636.616 94.074 638.205 94.4783 640.053 94.4783C640.371 94.4783 640.683 94.4712 640.99 94.4568C642.418 94.3899 643.131 94.3565 643.532 94.5157C643.94 94.6776 644.158 94.847 644.415 95.2024C644.667 95.552 644.785 96.1299 645.021 97.2857L646.455 104.315C646.628 105.163 646.715 105.587 646.593 106.042C646.497 106.401 646.223 106.828 645.937 107.065C645.575 107.366 645.195 107.454 644.436 107.632C644.004 107.733 643.525 107.839 642.999 107.952C641.006 108.385 638.465 108.602 635.374 108.602C631.995 108.602 628.876 107.865 626.016 106.392C623.157 104.891 620.861 102.753 619.128 99.9805C617.395 97.1789 616.528 93.8285 616.528 89.9294V56.8673C616.528 55.7472 616.528 55.1871 616.31 54.7593C616.119 54.383 615.813 54.077 615.436 53.8853C615.009 53.6673 614.448 53.6673 613.328 53.6673H611.454C610.333 53.6673 609.773 53.6673 609.346 53.4493C608.969 53.2575 608.663 52.9516 608.471 52.5753C608.254 52.1474 608.254 51.5874 608.254 50.4673V44.39C608.254 43.2699 608.254 42.7098 608.471 42.282C608.663 41.9057 608.969 41.5997 609.346 41.408C609.773 41.19 610.333 41.19 611.454 41.19H613.328C614.448 41.19 615.009 41.19 615.436 40.972C615.813 40.7803 616.119 40.4743 616.31 40.098C616.528 39.6702 616.528 39.1101 616.528 37.99V30.1798C616.528 29.0597 616.528 28.4996 616.746 28.0718C616.938 27.6955 617.244 27.3895 617.62 27.1978C618.048 26.9798 618.608 26.9798 619.728 26.9798H630.138C631.258 26.9798 631.818 26.9798 632.246 27.1978C632.622 27.3895 632.928 27.6955 633.12 28.0718C633.338 28.4996 633.338 29.0597 633.338 30.1798V37.99C633.338 39.1101 633.338 39.6702 633.556 40.098C633.748 40.4743 634.054 40.7803 634.43 40.972C634.858 41.19 635.418 41.19 636.538 41.19H641.749Z" fill="black"/>
<path fill-rule="evenodd" clip-rule="evenodd" d="M64 128C99.3462 128 128 99.3463 128 64.0001C128 28.6538 99.3462 0 64 0C61.5997 0 59.2303 0.132134 56.8986 0.389526C56.0239 0.48608 55.5865 0.534358 54.9698 0.683113C48.4146 2.26412 45.2596 10.7942 49.2083 16.2603C49.5799 16.7746 50.3874 17.6374 52.0024 19.3629V19.3629L69.2212 37.7591C77.8721 47.0016 82.1978 51.6228 83.8311 56.886C85.2695 61.5197 85.2695 66.4804 83.8311 71.1141C82.1978 76.3773 77.8721 80.9985 69.2212 90.241L52.0024 108.637V108.637C50.3873 110.363 49.5798 111.226 49.2082 111.74C45.2596 117.206 48.4146 125.736 54.9697 127.317C55.5865 127.466 56.0239 127.514 56.8986 127.611C59.2303 127.868 61.5997 128 64 128ZM11.4938 100.604C14.7456 105.26 21.5527 102.289 21.5527 96.61V96.61V31.39V31.39C21.5527 25.711 14.7457 22.7406 11.4939 27.3964C4.24939 37.769 0 50.3883 0 64.0001C0 77.6118 4.24937 90.2311 11.4938 100.604Z" fill="black"/>
</g>
<defs>
<clipPath id="clip0">
<rect width="647" height="128" fill="white"/>
</clipPath>
</defs>
</svg>
